<mxfile host="app.diagrams.net" modified="2024-04-05T11:02:02.146Z" agent="Mozilla/5.0 (Windows NT 10.0; Win64; x64) AppleWebKit/537.36 (KHTML, like Gecko) Chrome/123.0.0.0 Safari/537.36 Edg/123.0.0.0" version="24.2.2" etag="xE7W2-M7ohaQsiU1r_tq" type="github">
  <diagram name="Page-1" id="2XGq60XNIMz-fllnAIWj">
    <mxGraphModel>
      <root>
        <mxCell id="0" />
        <mxCell id="1" parent="0" />
      </root>
    </mxGraphModel>
  </diagram>
</mxfile>
